<?xml version="1.0" encoding="utf-8"?>
<!-- Generator: Adobe Illustrator 22.1.0, SVG Export Plug-In . SVG Version: 6.00 Build 0)  -->
<svg version="1.1" xmlns="http://www.w3.org/2000/svg" xmlns:xlink="http://www.w3.org/1999/xlink" x="0px" y="0px"
	 viewBox="0 0 50 50" style="enable-background:new 0 0 50 50;" xml:space="preserve">
<style type="text/css">
	.st0{fill:#232F3E;}
	.st1{fill:#527FFF;}
	.st2{fill:#FFFFFF;}
	.st3{fill:#AAB8B8;}
	.st4{fill:url(#SVGID_1_);}
	.st5{fill:url(#SVGID_2_);}
	.st6{fill:#8BC53F;}
	.st7{display:none;}
	.st8{display:inline;fill:#232F3E;}
	.st9{display:inline;fill:#FFFFFF;}
	.st10{fill:none;stroke:#FFFFFF;stroke-width:2;stroke-linejoin:round;stroke-miterlimit:10;stroke-dasharray:6,4;}
	.st11{fill:none;stroke:#FFFFFF;stroke-width:2;stroke-linejoin:round;stroke-miterlimit:10;}
	.st12{fill:none;stroke:#232F3E;stroke-width:2;stroke-linecap:round;stroke-linejoin:round;stroke-miterlimit:10;}
	.st13{fill:#FFFFFF;stroke:#232F3E;stroke-width:2;stroke-linecap:round;stroke-linejoin:round;stroke-miterlimit:10;}
	.st14{fill:none;stroke:#232F3E;stroke-width:2;stroke-linejoin:round;stroke-miterlimit:10;stroke-dasharray:6,4;}
	.st15{fill:none;stroke:#232F3E;stroke-width:2;stroke-linejoin:round;stroke-miterlimit:10;}
	.st16{fill:none;stroke:url(#SVGID_3_);stroke-width:2;stroke-linejoin:round;stroke-miterlimit:10;stroke-dasharray:6,4;}
	.st17{fill:none;stroke:url(#SVGID_4_);stroke-width:2;stroke-linejoin:round;stroke-miterlimit:10;stroke-dasharray:6,4;}
	.st18{fill:none;stroke:url(#SVGID_5_);stroke-width:2;stroke-linejoin:round;stroke-miterlimit:10;stroke-dasharray:6,4;}
	.st19{fill:none;stroke:url(#SVGID_6_);stroke-width:2;stroke-linejoin:round;stroke-miterlimit:10;stroke-dasharray:6,4;}
	.st20{fill:none;stroke:url(#SVGID_7_);stroke-width:2;stroke-linejoin:round;stroke-miterlimit:10;stroke-dasharray:6,4;}
	.st21{fill:none;stroke:url(#SVGID_8_);stroke-width:2;stroke-linejoin:round;stroke-miterlimit:10;stroke-dasharray:6,4;}
	.st22{fill:none;stroke:url(#SVGID_9_);stroke-width:2;stroke-linejoin:round;stroke-miterlimit:10;stroke-dasharray:6,4;}
	.st23{fill:none;stroke:url(#SVGID_10_);stroke-width:2;stroke-linejoin:round;stroke-miterlimit:10;stroke-dasharray:6,4;}
	.st24{fill:none;stroke:url(#SVGID_11_);stroke-width:2;stroke-linejoin:round;stroke-miterlimit:10;stroke-dasharray:6,4;}
	.st25{fill:none;stroke:url(#SVGID_12_);stroke-width:2;stroke-linejoin:round;stroke-miterlimit:10;}
	.st26{fill:none;stroke:url(#SVGID_13_);stroke-width:2;stroke-linejoin:round;stroke-miterlimit:10;}
	.st27{fill:none;stroke:url(#SVGID_14_);stroke-width:2;stroke-linejoin:round;stroke-miterlimit:10;}
	.st28{fill:none;stroke:url(#SVGID_15_);stroke-width:2;stroke-linejoin:round;stroke-miterlimit:10;}
	.st29{fill:none;stroke:url(#SVGID_16_);stroke-width:2;stroke-linejoin:round;stroke-miterlimit:10;}
	.st30{fill:none;stroke:url(#SVGID_17_);stroke-width:2;stroke-linejoin:round;stroke-miterlimit:10;}
	.st31{fill:none;stroke:url(#SVGID_18_);stroke-width:2;stroke-linejoin:round;stroke-miterlimit:10;}
	.st32{fill:none;stroke:url(#SVGID_19_);stroke-width:2;stroke-linejoin:round;stroke-miterlimit:10;stroke-dasharray:6,4;}
	.st33{fill:none;stroke:url(#SVGID_20_);stroke-width:2;stroke-linejoin:round;stroke-miterlimit:10;stroke-dasharray:6,4;}
	.st34{fill:none;stroke:url(#SVGID_21_);stroke-width:2;stroke-linejoin:round;stroke-miterlimit:10;stroke-dasharray:6,4;}
	.st35{fill:none;stroke:url(#SVGID_22_);stroke-width:2;stroke-linejoin:round;stroke-miterlimit:10;stroke-dasharray:6,4;}
	.st36{fill:none;stroke:url(#SVGID_23_);stroke-width:2;stroke-linejoin:round;stroke-miterlimit:10;stroke-dasharray:6,4;}
	.st37{fill:none;stroke:url(#SVGID_24_);stroke-width:2;stroke-linejoin:round;stroke-miterlimit:10;stroke-dasharray:6,4;}
	.st38{fill:none;stroke:url(#SVGID_25_);stroke-width:2;stroke-linejoin:round;stroke-miterlimit:10;stroke-dasharray:6,4;}
	.st39{fill:none;stroke:url(#SVGID_26_);stroke-width:2;stroke-linejoin:round;stroke-miterlimit:10;stroke-dasharray:6,4;}
	.st40{fill:none;stroke:url(#SVGID_27_);stroke-width:2;stroke-linejoin:round;stroke-miterlimit:10;stroke-dasharray:6,4;}
	.st41{fill:none;stroke:url(#SVGID_28_);stroke-width:2;stroke-linejoin:round;stroke-miterlimit:10;}
	.st42{fill:none;stroke:url(#SVGID_29_);stroke-width:2;stroke-linejoin:round;stroke-miterlimit:10;}
	.st43{fill:none;stroke:url(#SVGID_30_);stroke-width:2;stroke-linejoin:round;stroke-miterlimit:10;}
	.st44{fill:none;stroke:url(#SVGID_31_);stroke-width:2;stroke-linejoin:round;stroke-miterlimit:10;}
	.st45{fill:none;stroke:url(#SVGID_32_);stroke-width:2;stroke-linejoin:round;stroke-miterlimit:10;}
	.st46{fill:none;stroke:url(#SVGID_33_);stroke-width:2;stroke-linejoin:round;stroke-miterlimit:10;}
	.st47{fill:none;stroke:url(#SVGID_34_);stroke-width:2;stroke-linejoin:round;stroke-miterlimit:10;}
	.st48{display:inline;opacity:0.3;}
	.st49{fill:#EA2B7B;}
	.st50{display:inline;opacity:0.29;}
	.st51{fill:#EB008B;}
</style>
<g id="CARDS">
</g>
<g id="SPECS">
</g>
<g id="TEXT_-_EDIT">
</g>
<g id="ICONS_-_EDIT">
	<g>
		<g>
			<g>
				<g>
					<g>
						<path class="st0" d="M8.9,13.8l-1-1.8l5.9-3.2l1,1.8L8.9,13.8z M18.3,8.7l-1-1.8L22.6,4l1,1.8L18.3,8.7z"/>
						<path class="st0" d="M23.7,23.2l-5.3-2.8l0.9-1.8l5.3,2.8L23.7,23.2z M14.8,18.5l-5.3-2.8l0.9-1.8l5.3,2.8L14.8,18.5z"/>
						<path class="st0" d="M27.6,23l-0.9-1.8l5.4-2.6l0.9,1.8L27.6,23z M36.6,18.6l-0.9-1.8l5.4-2.6l0.9,1.8L36.6,18.6z"/>
					</g>
					<g>
						<path class="st0" d="M23.1,46.7l-6-3.2l0.9-1.8l6,3.2L23.1,46.7z M14.1,42.1l-5.3-2.8l0.9-1.8l5.3,2.8L14.1,42.1z"/>
					</g>
					<rect x="6.7" y="16.4" class="st0" width="2" height="7.7"/>
					<rect x="24.3" y="36.3" class="st0" width="2" height="7.9"/>
					<g>
						<path class="st0" d="M7.7,17.2c-0.7,0-1.4-0.3-1.9-0.8C5.3,15.9,5,15.2,5,14.5c0-0.7,0.3-1.4,0.8-1.9c1-1,2.8-1,3.8,0h0
							c0.5,0.5,0.8,1.2,0.8,1.9c0,0.7-0.3,1.4-0.8,1.9C9.1,16.9,8.4,17.2,7.7,17.2z M7.7,13.8c-0.2,0-0.4,0.1-0.5,0.2
							C7.1,14.1,7,14.3,7,14.5c0,0.2,0.1,0.4,0.2,0.5c0.3,0.3,0.7,0.3,1,0c0.1-0.1,0.2-0.3,0.2-0.5c0-0.2-0.1-0.4-0.2-0.5
							C8.1,13.9,7.9,13.8,7.7,13.8z"/>
					</g>
					<g>
						<path class="st0" d="M7.7,39.6c-0.7,0-1.4-0.3-1.9-0.8C5.3,38.3,5,37.6,5,36.9c0-0.7,0.3-1.4,0.8-1.9c1-1,2.8-1,3.8,0l0,0l0,0
							l0,0c0.5,0.5,0.8,1.2,0.8,1.9c0,0.7-0.3,1.4-0.8,1.9C9.1,39.3,8.4,39.6,7.7,39.6z M7.7,36.2c-0.2,0-0.4,0.1-0.5,0.2
							C7.1,36.5,7,36.7,7,36.9c0,0.2,0.1,0.4,0.2,0.5c0.3,0.3,0.7,0.3,1,0c0.1-0.1,0.2-0.3,0.2-0.5c0-0.2-0.1-0.4-0.2-0.5l0,0
							C8.1,36.3,7.9,36.2,7.7,36.2z"/>
					</g>
					<g>
						<path class="st0" d="M25.3,48.6c-0.7,0-1.4-0.3-1.9-0.8c-0.5-0.5-0.8-1.2-0.8-1.9s0.3-1.4,0.8-1.9c1.1-1.1,2.8-1.1,3.8,0
							c1.1,1.1,1.1,2.8,0,3.8C26.6,48.3,26,48.6,25.3,48.6z M25.3,45.1c-0.2,0-0.4,0.1-0.5,0.2c-0.3,0.3-0.3,0.7,0,1
							c0.3,0.3,0.7,0.3,1,0c0.3-0.3,0.3-0.7,0-1C25.6,45.2,25.4,45.1,25.3,45.1z"/>
					</g>
					<g>
						<path class="st0" d="M25.3,26.1c-0.7,0-1.4-0.3-1.9-0.8c-0.5-0.5-0.8-1.2-0.8-1.9c0-0.7,0.3-1.4,0.8-1.9
							c1.1-1.1,2.8-1.1,3.8,0c1.1,1.1,1.1,2.8,0,3.8C26.6,25.9,26,26.1,25.3,26.1z M25.3,22.7c-0.2,0-0.4,0.1-0.5,0.2
							c-0.3,0.3-0.3,0.7,0,1c0.3,0.3,0.7,0.3,1,0c0.3-0.3,0.3-0.7,0-1C25.6,22.8,25.4,22.7,25.3,22.7z"/>
					</g>
					<g>
						<path class="st0" d="M42.6,39.6c-0.7,0-1.4-0.3-1.9-0.8c-1.1-1.1-1.1-2.8,0-3.8c1-1,2.8-1,3.8,0c0.5,0.5,0.8,1.2,0.8,1.9
							c0,0.7-0.3,1.4-0.8,1.9C44,39.3,43.3,39.6,42.6,39.6z M42.6,36.2c-0.2,0-0.4,0.1-0.5,0.2c-0.3,0.3-0.3,0.7,0,1
							c0.3,0.3,0.7,0.3,1,0c0.3-0.3,0.3-0.7,0-1C43,36.3,42.8,36.2,42.6,36.2z"/>
					</g>
					<g>
						<path class="st0" d="M42.6,17.2c-0.7,0-1.4-0.3-1.9-0.8c-1.1-1.1-1.1-2.8,0-3.8c1-1,2.8-1,3.8,0c0,0,0,0,0,0
							c1.1,1.1,1.1,2.8,0,3.8C44,16.9,43.3,17.2,42.6,17.2z M42.6,13.8c-0.2,0-0.4,0.1-0.5,0.2c-0.3,0.3-0.3,0.7,0,1
							c0.3,0.3,0.7,0.3,1,0c0.3-0.3,0.3-0.7,0-1C43,13.9,42.8,13.8,42.6,13.8z"/>
					</g>
					<g>
						<path class="st0" d="M25.3,7c-0.7,0-1.4-0.3-1.9-0.8c-0.5-0.5-0.8-1.2-0.8-1.9s0.3-1.4,0.8-1.9c1.1-1.1,2.8-1.1,3.8,0
							c1.1,1.1,1.1,2.8,0,3.8C26.6,6.7,26,7,25.3,7z M25.3,3.6c-0.2,0-0.4,0.1-0.5,0.2c-0.3,0.3-0.3,0.7,0,1c0.3,0.3,0.7,0.3,1,0
							c0.3-0.3,0.3-0.7,0-1C25.6,3.6,25.4,3.6,25.3,3.6z"/>
					</g>
				</g>
			</g>
			<rect x="6.7" y="26.1" class="st0" width="2" height="8.6"/>
			<rect x="41.5" y="16.4" class="st0" width="2" height="7.7"/>
			<rect x="41.5" y="26.1" class="st0" width="2" height="8.6"/>
			<path class="st0" d="M35.8,10.5l1-1.8l5.7,3.1l-1,1.8L35.8,10.5z M26.2,5.3l1-1.8l6.1,3.3l-1,1.8L26.2,5.3z"/>
			<rect x="24.3" y="25.3" class="st0" width="2" height="7.9"/>
			<g>
				<path class="st0" d="M26.6,45l5.8-3l0.9,1.8l-5.8,3L26.6,45z M35.3,40.5l5.7-3l0.9,1.8l-5.7,3L35.3,40.5z"/>
			</g>
		</g>
	</g>
</g>
<g id="PADDING_1_" class="st7">
</g>
</svg>
